<?xml version="1.0" encoding="iso-8859-1"?>
<!-- Generator: Adobe Illustrator 19.0.0, SVG Export Plug-In . SVG Version: 6.00 Build 0)  -->
<svg version="1.1" id="Layer_1" xmlns="http://www.w3.org/2000/svg" xmlns:xlink="http://www.w3.org/1999/xlink" x="0px" y="0px"
	 viewBox="0 0 512 512" style="enable-background:new 0 0 512 512;" xml:space="preserve">
<rect x="93.528" y="358.614" style="fill:#687F82;" width="42.756" height="42.756"/>
<polygon style="fill:#CDD4D5;" points="110.63,469.779 42.221,469.779 16.568,307.307 110.63,307.307 "/>
<rect x="16.568" y="204.693" style="fill:#4ACFD9;" width="94.063" height="102.614"/>
<rect x="16.568" y="247.449" style="fill:#0295AA;" width="94.063" height="59.858"/>
<polygon style="fill:#FFD1A9;" points="375.716,486.881 110.63,307.307 110.63,204.693 375.716,33.67 "/>
<polygon style="fill:#FF8C29;" points="110.63,246.38 110.63,307.307 375.716,486.881 375.716,246.38 "/>
<rect x="332.96" y="8.017" style="fill:#4ACFD9;" width="76.96" height="495.967"/>
<rect x="332.96" y="247.449" style="fill:#0295AA;" width="76.96" height="256.534"/>
<g>
	<path style="fill:#FFFFFF;" d="M84.977,246.914H50.772c-4.427,0-8.017-3.588-8.017-8.017c0-4.428,3.589-8.017,8.017-8.017h34.205
		c4.427,0,8.017,3.588,8.017,8.017C92.994,243.326,89.404,246.914,84.977,246.914z"/>
	<path style="fill:#FFFFFF;" d="M384.267,152.852c-4.428,0-8.017-3.588-8.017-8.017V42.221c0-4.428,3.588-8.017,8.017-8.017
		s8.017,3.588,8.017,8.017v102.614C392.284,149.264,388.696,152.852,384.267,152.852z"/>
	<path style="fill:#FFFFFF;" d="M384.267,229.812c-4.428,0-8.017-3.588-8.017-8.017V179.04c0-4.428,3.588-8.017,8.017-8.017
		s8.017,3.588,8.017,8.017v42.756C392.284,226.224,388.696,229.812,384.267,229.812z"/>
</g>
<g>
	<path style="fill:#F0353D;" d="M495.432,255.466h-34.205c-4.428,0-8.017-3.588-8.017-8.017c0-4.428,3.588-8.017,8.017-8.017h34.205
		c4.428,0,8.017,3.588,8.017,8.017C503.449,251.877,499.861,255.466,495.432,255.466z"/>
	<path style="fill:#F0353D;" d="M441.759,182.782c-2.771,0-5.465-1.438-6.95-4.009c-2.214-3.834-0.9-8.737,2.934-10.951
		l29.622-17.102c3.832-2.213,8.738-0.901,10.951,2.934c2.214,3.834,0.9,8.737-2.934,10.951l-29.622,17.102
		C444.498,182.436,443.119,182.782,441.759,182.782z"/>
	<path style="fill:#F0353D;" d="M471.366,345.254c-1.361,0-2.738-0.346-4.001-1.075l-29.622-17.102
		c-3.834-2.214-5.148-7.117-2.934-10.951c2.213-3.836,7.115-5.148,10.951-2.934l29.622,17.102c3.834,2.214,5.148,7.117,2.934,10.951
		C476.832,343.816,474.137,345.254,471.366,345.254z"/>
</g>
<path d="M409.921,0h-76.96c-4.428,0-8.017,3.588-8.017,8.017v48.87l-216.674,139.79H16.568c-4.427,0-8.017,3.588-8.017,8.017
	v102.614c0,0.066,0.009,0.131,0.01,0.197c0.003,0.143,0.011,0.285,0.021,0.43c0.012,0.144,0.027,0.286,0.046,0.429
	c0.009,0.065,0.011,0.13,0.02,0.196l25.653,162.472c0.616,3.897,3.974,6.766,7.918,6.766h68.409c4.427,0,8.017-3.588,8.017-8.017
	v-60.392h17.637c4.427,0,8.017-3.588,8.017-8.017v-42.756c0-4.428-3.589-8.017-8.017-8.017h-17.636V322.42l206.296,139.749v41.814
	c0,4.428,3.588,8.017,8.017,8.017h76.96c4.428,0,8.017-3.588,8.017-8.017V8.017C417.937,3.588,414.349,0,409.921,0z
	 M118.647,209.061L324.944,75.967v366.838l-206.296-139.75V209.061z M102.614,212.71v86.58H24.585v-86.58H102.614z M102.614,461.762
	H49.072L25.95,315.324h76.664v43.29v42.756V461.762z M128.267,393.353h-9.62V366.63h9.62V393.353z M401.904,495.967h-60.927v-38.022
	c0-0.007,0-0.015,0-0.021v-0.006V61.255V16.033h60.927V495.967z"/>
<g>
</g>
<g>
</g>
<g>
</g>
<g>
</g>
<g>
</g>
<g>
</g>
<g>
</g>
<g>
</g>
<g>
</g>
<g>
</g>
<g>
</g>
<g>
</g>
<g>
</g>
<g>
</g>
<g>
</g>
</svg>
