<?xml version="1.0" encoding="utf-8"?>
<!-- Generator: Adobe Illustrator 21.0.2, SVG Export Plug-In . SVG Version: 6.00 Build 0)  -->
<svg version="1.1" id="Layer_1" xmlns="http://www.w3.org/2000/svg" xmlns:xlink="http://www.w3.org/1999/xlink" x="0px" y="0px"
	 viewBox="0 0 122.2 120.2" style="enable-background:new 0 0 122.2 120.2;" xml:space="preserve">
<style type="text/css">
	.st0{opacity:0.3;}
	.st1{fill:#FFFFFF;}
	.st2{fill:#256866;}
	.st3{fill:#0DCCCC;}
	.st4{fill:#B90000;}
	.st5{fill:#F65A60;}
</style>
<g>
	<path class="st0" d="M110.2,42.1l0,17.1c-1.4,35.3-44.2,54.2-46.1,55c-0.9,0.4-1.9,0.6-3,0.6H61c-1,0-2-0.2-3-0.6
		c-1.8-0.8-43.3-19.1-45.9-53.2c0-0.3-0.1-0.5-0.1-0.8v-0.2c0-0.3,0-0.4,0-0.6c0-1,0-2,0.1-3.1l0-13.7l0-0.2c0-0.3,0-0.6-0.1-0.8
		c0-1.1,0-2.2,0.1-3.5v-0.4c0-0.4,0.1-0.8,0.2-1.2c0.8-6.2,3.6-11.8,7.9-16.4c5.8-6.1,14-9.5,22.4-9.5c6.8,0,13.2,2.2,18.5,6.2
		c5.3-4,11.7-6.2,18.5-6.2c8.4,0,16.6,3.5,22.4,9.5c4.6,4.8,7.4,10.8,8.1,17.2c0.1,0.3,0.1,0.6,0.1,0.9v0.1c0.1,1.2,0.1,2.2,0.1,3.2
		C110.2,41.7,110.2,41.9,110.2,42.1z"/>
	<path class="st1" d="M110.2,36.8l0,17.1c-1.4,35.3-44.2,54.2-46.1,55c-0.9,0.4-1.9,0.6-3,0.6H61c-1,0-2-0.2-3-0.6
		c-1.8-0.8-43.3-19.1-45.9-53.2c0-0.3-0.1-0.5-0.1-0.8v-0.2c0-0.3,0-0.4,0-0.6c0-1,0-2,0.1-3.1l0-13.7l0-0.2c0-0.3,0-0.6-0.1-0.8
		c0-1.1,0-2.2,0.1-3.5v-0.4c0-0.4,0.1-0.8,0.2-1.2c0.8-6.2,3.6-11.8,7.9-16.4c5.8-6.1,14-9.5,22.4-9.5c6.8,0,13.2,2.2,18.5,6.2
		c5.3-4,11.7-6.2,18.5-6.2c8.4,0,16.6,3.5,22.4,9.5c4.6,4.8,7.4,10.8,8.1,17.2c0.1,0.3,0.1,0.6,0.1,0.9V33c0.1,1.2,0.1,2.2,0.1,3.2
		C110.2,36.4,110.2,36.6,110.2,36.8z"/>
	<path class="st4" d="M106,54c-1.3,32.5-41.8,50.3-43.5,51.1c-0.4,0.2-0.8,0.3-1.3,0.3c-0.1,0-0.2,0-0.2,0c-0.4,0-0.9-0.1-1.3-0.3
		C58,104.3,17.5,86.4,16.2,54c-0.3-6.8,2.2-13.3,7-18.3c5-5.2,12.1-8.2,19.3-8.2c7.1,0,13.6,2.7,18.5,7.6c4.9-4.9,11.5-7.6,18.5-7.6
		c7.3,0,14.3,3,19.3,8.2C103.7,40.7,106.2,47.2,106,54z"/>
	<polygon class="st4" points="16.3,54.9 16.3,32.4 105.9,32.9 106,54 	"/>
	<path class="st4" d="M106,36c-1.3,32.5-41.8,50.3-43.5,51.1c-0.4,0.2-0.8,0.3-1.3,0.3c-0.1,0-0.2,0-0.2,0c-0.4,0-0.9-0.1-1.3-0.3
		C58,86.4,17.5,68.5,16.2,36c-0.3-6.8,2.2-13.3,7-18.3c5-5.2,12.1-8.2,19.3-8.2c7.1,0,13.6,2.7,18.5,7.6c4.9-4.9,11.5-7.6,18.5-7.6
		c7.3,0,14.3,3,19.3,8.2C103.7,22.8,106.2,29.3,106,36z"/>
	<path class="st5" d="M102.8,35.9c-1.2,30.8-41.5,48.3-41.5,48.3s0-0.3-0.1-0.9C61,83.9,61,84.2,61,84.2S20.7,66.8,19.4,35.9
		c-0.5-12.8,10.4-23.1,23.1-23.1c7.6,0,14.3,3.7,18.5,9.3c4.2-5.6,10.9-9.3,18.5-9.3C92.4,12.8,103.3,23.1,102.8,35.9z"/>
</g>
</svg>
