<?xml version="1.0" encoding="utf-8"?>
<!-- Generator: Adobe Illustrator 21.0.2, SVG Export Plug-In . SVG Version: 6.00 Build 0)  -->
<svg version="1.1" id="Camada_1" xmlns="http://www.w3.org/2000/svg" xmlns:xlink="http://www.w3.org/1999/xlink" x="0px" y="0px"
	 viewBox="0 0 154 34" style="enable-background:new 0 0 154 34;" xml:space="preserve">
<style type="text/css">
	.st0{fill:#FFFFFF;}
	.st1{fill:#00B9FF;}
</style>
<g>
	<g>
		<path class="st0" d="M91.8,31L83.7,7.6h-0.2c0.2,3.5,0.3,6.7,0.3,9.8V31h-4.2V3h6.5L94,25.3h0.1l8-22.3h6.5V31h-4.4V17.2
			c0-1.4,0-3.2,0.1-5.5s0.1-3.6,0.2-4.1h-0.2L95.9,31H91.8z"/>
		<path class="st0" d="M133.8,16.7c0,4.6-1.3,8.2-3.9,10.6s-6.3,3.7-11.1,3.7H111V3h8.7c4.5,0,7.9,1.2,10.4,3.6
			C132.6,9,133.8,12.4,133.8,16.7z M129,16.9c0-6.7-3.1-10.1-9.4-10.1h-4v20.4h3.3C125.6,27.2,129,23.8,129,16.9z"/>
		<path class="st0" d="M153,23.4c0,2.5-0.9,4.5-2.7,5.9c-1.8,1.4-4.3,2.1-7.5,2.1c-3.2,0-5.8-0.5-7.8-1.5v-4.3
			c1.3,0.6,2.6,1.1,4.1,1.4c1.4,0.3,2.8,0.5,4,0.5c1.8,0,3.2-0.3,4-1c0.9-0.7,1.3-1.6,1.3-2.8c0-1-0.4-1.9-1.2-2.7
			c-0.8-0.7-2.4-1.6-4.9-2.6c-2.6-1-4.4-2.2-5.4-3.6c-1-1.3-1.6-2.9-1.6-4.8c0-2.3,0.8-4.2,2.5-5.5c1.7-1.3,3.9-2,6.7-2
			c2.7,0,5.4,0.6,8,1.8l-1.5,3.7c-2.5-1-4.7-1.6-6.7-1.6c-1.5,0-2.6,0.3-3.4,1s-1.2,1.5-1.2,2.6c0,0.7,0.2,1.4,0.5,1.9
			s0.8,1,1.5,1.5c0.7,0.5,2,1.1,3.8,1.8c2.1,0.9,3.6,1.7,4.5,2.4s1.7,1.6,2.1,2.5C152.8,21.1,153,22.2,153,23.4z"/>
	</g>
	<g>
		<path class="st1" d="M17.7,30.8H1V2.8h16.7v6.1H8.6v4.4H17v6.1H8.6v5.3h9.1V30.8z"/>
		<path class="st1" d="M39.8,30.8l-1.4-5.3h-9.1l-1.4,5.3h-8.3l9.2-28.2h10.1l9.3,28.2H39.8z M36.9,19.4l-1.2-4.6
			c-0.3-1-0.6-2.3-1-4C34.2,9.1,34,8,33.8,7.3c-0.1,0.7-0.3,1.7-0.7,3.2c-0.3,1.5-1.1,4.4-2.3,8.9H36.9z"/>
		<path class="st1" d="M75,16.2c0,4.7-1.3,8.3-3.9,10.8c-2.6,2.5-6.2,3.8-10.9,3.8h-9.1V2.8h9.7c4.5,0,8,1.2,10.4,3.5
			C73.7,8.5,75,11.9,75,16.2z M67.1,16.5c0-2.6-0.5-4.5-1.5-5.7c-1-1.2-2.6-1.9-4.6-1.9h-2.2v15.7h1.7c2.3,0,4-0.7,5.1-2
			C66.6,21.3,67.1,19.2,67.1,16.5z"/>
	</g>
</g>
</svg>
