<?xml version="1.0" encoding="utf-8"?>
<!-- Generator: Adobe Illustrator 21.0.2, SVG Export Plug-In . SVG Version: 6.00 Build 0)  -->
<svg version="1.1" id="Layer_1" xmlns="http://www.w3.org/2000/svg" xmlns:xlink="http://www.w3.org/1999/xlink" x="0px" y="0px"
	 viewBox="0 0 140 137.7" style="enable-background:new 0 0 140 137.7;" xml:space="preserve">
<style type="text/css">
	.st0{opacity:0.3;}
	.st1{fill:#FFFFFF;}
	.st2{fill:#256866;}
	.st3{fill:#0DCCCC;}
	.st4{fill:#B90000;}
	.st5{fill:#F65A60;}
</style>
<g>
	<path class="st0" d="M108.3,56.8l0,17.7c0.1,2-0.5,3.9-1.7,5.5c0,0-10,12.8-20.1,25.6c-5,6.4-10,12.8-13.8,17.6l-4.6,5.8
		c-2.6,3.3-4.2,5.4-8.3,5.4c-3.1,0-5.9-1.7-7.3-4.4c-0.6-1.1-0.9-2.2-1-3.5c-0.3-2.8-0.1-12.9,0-19c0-1,0.1-2,0.4-2.9
		c0.2-0.8,0.7-3.7,2.5-14.9L38.5,87c-2.7-0.5-5-2.2-6.1-4.7c-0.4-0.8-0.6-1.6-0.7-2.6c0-0.2-0.1-0.5-0.1-0.7c0-0.2,0-0.4,0-0.6
		l0-18.1c-0.1-1.6,0.3-3.2,1.1-4.6l25.8-43.9c1.9-3.3,6.1-4.9,9.8-3.7l25.5,8.6c2.5,0.8,4.4,2.8,5.2,5.3c0.1,0.3,0.1,0.5,0.2,0.8
		c0.1,0.4,0.2,0.8,0.2,1.3h0c0,0.2,0,0.4,0,0.5l0,18.2c0.1,1.1,0,2.1-0.3,3.1l5,2.7c2.1,1.2,3.6,3.2,4.1,5.6
		C108.3,55.1,108.4,55.9,108.3,56.8z"/>
	<path class="st1" d="M108.3,52.2l0,17.7c0.1,2-0.5,3.9-1.7,5.5c0,0-10,12.8-20.1,25.6c-5,6.4-10,12.8-13.8,17.6l-4.6,5.8
		c-2.6,3.3-4.2,5.4-8.3,5.4c-3.1,0-5.9-1.7-7.3-4.4c-0.6-1.1-0.9-2.2-1-3.5c-0.3-2.8-0.1-12.9,0-19c0-1,0.1-2,0.4-2.9
		c0.2-0.8,0.7-3.7,2.5-14.9l-15.9-2.7c-2.7-0.5-5-2.2-6.1-4.7c-0.4-0.8-0.6-1.6-0.7-2.6c0-0.2-0.1-0.5-0.1-0.7c0-0.2,0-0.4,0-0.5
		l0-18.1c-0.1-1.6,0.3-3.2,1.1-4.6L58.6,7.3c1.9-3.3,6.1-4.9,9.8-3.7l25.5,8.6c2.5,0.8,4.4,2.8,5.2,5.3c0.1,0.3,0.1,0.5,0.2,0.8
		c0.1,0.4,0.2,0.8,0.2,1.3h0c0,0.2,0,0.4,0,0.5l0,18.2c0.1,1.1,0,2.1-0.3,3.1l5,2.7c2.1,1.2,3.6,3.2,4.1,5.6
		C108.3,50.5,108.4,51.3,108.3,52.2z"/>
	<path class="st2" d="M103.7,51.9c0.1-0.4,0.1-0.8,0-1.2c-0.2-1.1-0.9-2-1.8-2.5l-9.1-5l1.5-2.1c0.5-0.8,0.7-1.7,0.6-2.6l0-18.5
		c0-0.1,0-0.2,0-0.3v-0.2l0,0c0-0.2-0.1-0.4-0.1-0.6c-0.4-1.1-1.2-2-2.3-2.4L66.9,8c-0.4-0.1-0.8-0.2-1.2-0.2
		c-1.3,0-2.5,0.7-3.2,1.8L36.7,53.6c-0.4,0.7-0.5,1.4-0.5,2.1l0,18.3c0,0.1,0,0.2,0,0.3v0.2l0,0c0,0.5,0.1,0.9,0.3,1.4
		c0.5,1.1,1.5,1.9,2.7,2.1l20.4,3.5c-1.5,9.8-2.9,18.3-3.3,19.9c-0.2,0.5-0.3,1-0.2,1.6c0,1.5-0.3,16.4,0,18.7
		c0,0.6,0.1,1.1,0.4,1.6c0.6,1.2,1.9,1.9,3.2,1.9c1.8,0,2.2-0.6,4.7-3.6c1.1-1.4,2.7-3.4,4.6-5.8c3.8-4.8,8.8-11.2,13.8-17.6
		c10-12.8,20.1-25.6,20.1-25.6c0.6-0.7,0.8-1.6,0.8-2.5L103.7,51.9z"/>
	<path class="st3" d="M65.7,11.5l25.5,8.6l-13.5,19l22.4,12.3c0,0-40.8,52.2-40.2,51.3c0.6-0.9,6.8-42.7,6.8-42.7l-26.7-4.6
		L65.7,11.5z"/>
</g>
</svg>
