<?xml version="1.0" encoding="utf-8"?>
<!-- Generator: Adobe Illustrator 21.0.2, SVG Export Plug-In . SVG Version: 6.00 Build 0)  -->
<svg version="1.1" id="Camada_1" xmlns="http://www.w3.org/2000/svg" xmlns:xlink="http://www.w3.org/1999/xlink" x="0px" y="0px"
	 viewBox="0 0 54 12" style="enable-background:new 0 0 54 12;" xml:space="preserve">
<style type="text/css">
	.st0{fill:#CCCCCC;}
</style>
<g>
	<path class="st0" d="M13.5,5h-11C1.1,5,0,3.9,0,2.5v0C0,1.1,1.1,0,2.5,0l11,0C14.9,0,16,1.1,16,2.5v0C16,3.9,14.9,5,13.5,5z"/>
</g>
<g>
	<path class="st0" d="M32.5,5h-11C20.1,5,19,3.9,19,2.5v0C19,1.1,20.1,0,21.5,0l11,0C33.9,0,35,1.1,35,2.5v0C35,3.9,33.9,5,32.5,5z"
		/>
</g>
<g>
	<path class="st0" d="M51.5,5h-11C39.1,5,38,3.9,38,2.5v0C38,1.1,39.1,0,40.5,0l11,0C52.9,0,54,1.1,54,2.5v0C54,3.9,52.9,5,51.5,5z"
		/>
</g>
<g>
	<path class="st0" d="M13.5,12h-11C1.1,12,0,10.9,0,9.5v0C0,8.1,1.1,7,2.5,7h11C14.9,7,16,8.1,16,9.5v0C16,10.9,14.9,12,13.5,12z"/>
</g>
<g>
	<path class="st0" d="M32.5,12h-11c-1.4,0-2.5-1.1-2.5-2.5v0C19,8.1,20.1,7,21.5,7h11C33.9,7,35,8.1,35,9.5v0
		C35,10.9,33.9,12,32.5,12z"/>
</g>
<g>
	<path class="st0" d="M51.5,12h-11c-1.4,0-2.5-1.1-2.5-2.5v0C38,8.1,39.1,7,40.5,7h11C52.9,7,54,8.1,54,9.5v0
		C54,10.9,52.9,12,51.5,12z"/>
</g>
</svg>
