<?xml version="1.0" encoding="utf-8"?>
<!-- Generator: Adobe Illustrator 21.0.2, SVG Export Plug-In . SVG Version: 6.00 Build 0)  -->
<svg version="1.1" id="Camada_1" xmlns="http://www.w3.org/2000/svg" xmlns:xlink="http://www.w3.org/1999/xlink" x="0px" y="0px"
	 viewBox="0 0 70 5" style="enable-background:new 0 0 70 5;" xml:space="preserve">
<style type="text/css">
	.st0{fill:#929292;}
</style>
<g>
	<path class="st0" d="M14,4.6H2.3C1,4.6,0,3.6,0,2.3v0C0,1,1,0,2.3,0H14c1.3,0,2.3,1,2.3,2.3v0C16.3,3.6,15.3,4.6,14,4.6z"/>
</g>
<g>
	<path class="st0" d="M32,4.6H20.3c-1.3,0-2.3-1-2.3-2.3v0C18,1,19,0,20.3,0H32c1.3,0,2.3,1,2.3,2.3v0C34.3,3.6,33.3,4.6,32,4.6z"/>
</g>
<g>
	<path class="st0" d="M50,4.6H38.3c-1.3,0-2.3-1-2.3-2.3v0C36,1,37,0,38.3,0H50c1.3,0,2.3,1,2.3,2.3v0C52.3,3.6,51.3,4.6,50,4.6z"/>
</g>
<g>
	<path class="st0" d="M68,4.6H56.3c-1.3,0-2.3-1-2.3-2.3v0C54,1,55,0,56.3,0H68c1.3,0,2.3,1,2.3,2.3v0C70.3,3.6,69.3,4.6,68,4.6z"/>
</g>
</svg>
