<?xml version="1.0" encoding="utf-8"?>
<!-- Generator: Adobe Illustrator 21.0.2, SVG Export Plug-In . SVG Version: 6.00 Build 0)  -->
<svg version="1.1" id="Layer_1" xmlns="http://www.w3.org/2000/svg" xmlns:xlink="http://www.w3.org/1999/xlink" x="0px" y="0px"
	 viewBox="0 0 624 350" style="enable-background:new 0 0 624 350;" xml:space="preserve">
<style type="text/css">
	.st0{fill-rule:evenodd;clip-rule:evenodd;fill:#BDC2B8;}
	.st1{fill-rule:evenodd;clip-rule:evenodd;fill:#FBCC68;}
	.st2{fill-rule:evenodd;clip-rule:evenodd;fill:#5A1B47;}
	.st3{fill-rule:evenodd;clip-rule:evenodd;fill:#7B3C47;}
	.st4{fill-rule:evenodd;clip-rule:evenodd;fill:#642547;}
	.st5{fill-rule:evenodd;clip-rule:evenodd;fill:#8D2647;}
	.st6{fill-rule:evenodd;clip-rule:evenodd;fill:#EA7747;}
	.st7{fill-rule:evenodd;clip-rule:evenodd;fill:#FA995C;}
	.st8{fill-rule:evenodd;clip-rule:evenodd;fill:#DC3647;}
	.st9{fill-rule:evenodd;clip-rule:evenodd;fill:#A63247;}
	.st10{fill-rule:evenodd;clip-rule:evenodd;fill:#EAF4CD;}
	.st11{fill-rule:evenodd;clip-rule:evenodd;fill:#B34347;}
	.st12{fill-rule:evenodd;clip-rule:evenodd;fill:#6E2E47;}
	.st13{fill-rule:evenodd;clip-rule:evenodd;fill:#FF6161;}
	.st14{fill-rule:evenodd;clip-rule:evenodd;fill:#FB9368;}
	.st15{fill-rule:evenodd;clip-rule:evenodd;fill:#FFDA82;}
	.st16{fill-rule:evenodd;clip-rule:evenodd;fill:#466646;}
	.st17{fill-rule:evenodd;clip-rule:evenodd;fill:#599959;}
	.st18{fill-rule:evenodd;clip-rule:evenodd;fill:#F0E2C5;}
	.st19{fill-rule:evenodd;clip-rule:evenodd;fill:#CBA58B;}
	.st20{fill-rule:evenodd;clip-rule:evenodd;fill:#EADBBD;}
	.st21{fill-rule:evenodd;clip-rule:evenodd;fill:#EAC1A3;}
	.st22{fill-rule:evenodd;clip-rule:evenodd;fill:#EA8547;}
	.st23{fill-rule:evenodd;clip-rule:evenodd;fill:#FAECD0;}
	.st24{fill-rule:evenodd;clip-rule:evenodd;fill:#EAB88A;}
	.st25{fill-rule:evenodd;clip-rule:evenodd;fill:#EAAB7B;}
	.st26{fill-rule:evenodd;clip-rule:evenodd;fill:#FFFFFF;}
</style>
<g>
	<path class="st0" d="M88.6,136.1L88.6,136.1c-45.8,0-80.5,37.5-77.1,83.3l5.2,70.3c0.5,6.3,1.6,12.5,3.4,18.4h162.4
		c0.9-5.9,1.2-12.1,0.7-18.4l-5.2-70.3C174.7,173.6,134.4,136.1,88.6,136.1z"/>
	<path class="st1" d="M102.5,83.2c2.1,3.6,3.4,7.8,3.4,12.2c0,5.6-1.9,10.8-5.2,14.9c8,2.3,13.9,9.8,13.9,18.6
		c0,10.7-8.7,19.3-19.3,19.3c-9.9,0-18.1-7.5-19.2-17.2c-5.6-1.2-9.8-6.2-9.8-12.2c0-1.7,0.3-3.3,0.9-4.7c-5.5-4.4-9-11.1-9-18.7
		c0-6.4,2.5-12.3,6.7-16.6c-2.1-3.6-3.4-7.8-3.4-12.2c0-13.2,10.7-23.9,23.9-23.9c13.2,0,23.9,10.7,23.9,23.9
		C109.2,73.1,106.6,78.9,102.5,83.2z"/>
	<path class="st2" d="M89.9,150.5L89.9,150.5c-39.4,0-69.2,32.2-66.2,71.6l4.5,60.4c0.4,5.4,1.4,10.7,3,15.8h139.6
		c0.8-5.1,1-10.4,0.6-15.8l-4.5-60.4C163.9,182.7,129.3,150.5,89.9,150.5z"/>
	<path class="st3" d="M106.6,150.5L106.6,150.5c-39.4,0-67.7,32.2-63,71.6l7.3,60.4c0.7,5.4,1.9,10.7,3.7,15.8h139.6
		c0.6-5.1,0.5-10.4-0.1-15.8l-7.3-60.4C182,182.7,145.9,150.5,106.6,150.5z"/>
	<path class="st2" d="M140.5,231.3c-10-11.4-8.9-28.8,2.5-38.8c11.4-10,28.8-8.9,38.8,2.5c0.1,0.1,31.4,36.4,107.8,53.3
		c14.8,3.3,24.2,17.9,20.9,32.8c-3.3,14.8-17.9,24.2-32.8,20.9C183.7,281.2,140.7,231.4,140.5,231.3z"/>
	<path class="st4" d="M78.6,213.2h7.9c4.5-7.3,10.8-13.6,18.7-18.2l0,0c25.6-14.8,58.6-5.9,73.3,19.6l38.6,66.9
		c6.4,11.1,8.4,23.6,6.4,35.5H113.6l-28.1-48.7c-5.7-9.8-7.9-20.7-6.9-31.3V213.2z"/>
	<path class="st5" d="M99.7,145.2c10.7,0,19.3-8.7,19.3-19.3s-8.7-19.3-19.3-19.3s-19.3,8.7-19.3,19.3S89.1,145.2,99.7,145.2z"/>
	<path class="st6" d="M100.8,115.2h53.5v87.6c0,6.2-5.1,11.3-11.3,11.3h-15.4c-14.7,0-26.7-12-26.7-26.7V115.2z"/>
	<path class="st7" d="M126.4,172.9L126.4,172.9c5.7,0,10.3,4.6,10.3,10.3v9.4c0,5.7-4.6,10.3-10.3,10.3h0c-5.7,0-10.3-4.6-10.3-10.3
		v-9.4C116.1,177.5,120.8,172.9,126.4,172.9z"/>
	<path class="st8" d="M143.7,115.2h10.6v48v7.3v33.2c0,5.7-4.7,10.3-10.3,10.3h-10.6c5.7,0,10.3-4.7,10.3-10.3v-26.9
		c0-5.5-4.2-6.3-5-6.3v0c-16.5-0.7-29.8-14.5-29.8-31.2v-23.9h31.9v47.7h3V115.2z"/>
	<path class="st5" d="M83.2,128.3c6.9,0,12.5-5.6,12.5-12.5c0-6.9-5.6-12.5-12.5-12.5c-6.9,0-12.5,5.6-12.5,12.5
		C70.7,122.7,76.3,128.3,83.2,128.3z"/>
	<path class="st5" d="M178.9,93.7c13.4,0,24.4-11,24.4-24.4s-10.9-24.4-24.4-24.4c-13.4,0-24.4,11-24.4,24.4S165.5,93.7,178.9,93.7z
		"/>
	<path class="st9" d="M123.1,56.4c7.4,0,13.4-6,13.4-13.4c0-7.4-6-13.4-13.4-13.4c-7.4,0-13.4,6-13.4,13.4
		C109.7,50.3,115.7,56.4,123.1,56.4z"/>
	<path class="st6" d="M125.9,53.1H158c17.2,0,31.2,14,31.2,31.2v54.6c0,13.4-11,24.4-24.4,24.4h-37.5c-12.1,0-22-9.9-22-22V73.5
		C105.4,62.3,114.6,53.1,125.9,53.1z"/>
	<path class="st7" d="M105.4,140.3V82c1.2-0.4,2.5-0.7,3.9-0.7h17.5c9.3,0,17,7.6,17,17V128c0,7.3-6,13.2-13.2,13.2h-20.4
		C108.4,141.2,106.8,140.9,105.4,140.3z"/>
	<path class="st8" d="M138.1,53.1h20.4c17.2,0,31.2,14.1,31.2,31.3V139c0,13.4-11,24.4-24.4,24.4H145c13.4,0,24.4-11,24.4-24.4V84.3
		C169.3,67.1,155.3,53.1,138.1,53.1z"/>
	<path class="st9" d="M111.7,103.7c16.8,0,30.5-13.7,30.5-30.5c0-16.8-13.7-30.5-30.5-30.5c-16.8,0-30.5,13.7-30.5,30.5
		C81.3,90,95,103.7,111.7,103.7z"/>
	<path class="st5" d="M137.1,90.1c-5.5,8.2-14.8,13.5-25.3,13.5c-9.5,0-18-4.3-23.5-11.1c4.3-9.6,13.9-16.2,25.1-16.2
		C123.5,76.3,132.4,81.9,137.1,90.1z"/>
	<path class="st9" d="M148,72.3c13.4,0,24.4-11,24.4-24.4c0-13.4-10.9-24.4-24.4-24.4c-13.4,0-24.4,10.9-24.4,24.4
		C123.6,61.3,134.6,72.3,148,72.3z"/>
	<path class="st9" d="M88.5,117.2c13.2,0,23.9-10.7,23.9-23.9c0-13.2-10.7-23.9-23.9-23.9c-13.2,0-23.9,10.7-23.9,23.9
		C64.6,106.5,75.4,117.2,88.5,117.2z"/>
	<path class="st9" d="M91.9,88.4c13.2,0,23.9-10.7,23.9-23.9c0-13.2-10.7-23.9-23.9-23.9C78.7,40.6,68,51.3,68,64.5
		C68,77.7,78.7,88.4,91.9,88.4z"/>
	<path class="st9" d="M106.7,56.2c7.4,0,13.4-6,13.4-13.4c0-7.4-6-13.4-13.4-13.4c-7.4,0-13.4,6-13.4,13.4
		C93.3,50.2,99.3,56.2,106.7,56.2z"/>
	<path class="st5" d="M119.6,29.9h16.1c-11.2,0-20.3,9.1-20.3,20.3v33.9H99.2V50.2C99.2,39,108.4,29.9,119.6,29.9z"/>
	<path class="st9" d="M175.6,64.4c14.2,0,25.8-11.6,25.8-25.8c0-14.2-11.6-25.8-25.8-25.8c-14.2,0-25.8,11.6-25.8,25.8
		C149.8,52.8,161.4,64.4,175.6,64.4z"/>
	<path class="st10" d="M116.5,29h16.1c-11.2,0-20.3,9.1-20.3,20.3v33.9H96.2V49.4C96.2,38.2,105.3,29,116.5,29z"/>
	<path class="st9" d="M132.5,49.6c7.4,0,13.4-6,13.4-13.4c0-7.4-6-13.4-13.4-13.4c-7.4,0-13.4,6-13.4,13.4
		C119.1,43.5,125.1,49.6,132.5,49.6z"/>
	<path class="st5" d="M197,24.3c2.7,4.1,4.3,9,4.3,14.3c0,14.2-11.5,25.8-25.8,25.8c-3,0-5.8-0.5-8.5-1.4
		c-4.5,5.7-11.4,9.3-19.2,9.3c-10.3,0-19.1-6.4-22.7-15.4c4.4,6.5,11.8,10.7,20.2,10.7c7.8,0,14.7-3.6,19.2-9.3
		c2.7,0.9,5.5,1.4,8.5,1.4c14.2,0,25.8-11.5,25.8-25.8C198.9,30.5,198.2,27.3,197,24.3z"/>
	<ellipse transform="matrix(0.8857 -0.4643 0.4643 0.8857 6.9712 81.8157)" class="st11" cx="169.6" cy="26.8" rx="16.7" ry="9.8"/>
	<ellipse transform="matrix(0.8857 -0.4643 0.4643 0.8857 -0.7315 69.7715)" class="st11" cx="141.3" cy="36.4" rx="11" ry="6.4"/>
	<path class="st12" d="M85.4,233.1c-10-11.4-8.9-28.8,2.5-38.8c11.4-10,28.8-8.9,38.8,2.5c0.1,0.1,31.4,36.4,107.8,53.3
		c14.8,3.3,24.2,17.9,20.9,32.8c-3.3,14.8-17.9,24.2-32.8,20.9C128.5,283,85.5,233.2,85.4,233.1z"/>
	<path class="st1" d="M87,195.9c0.6-0.6,1.1-1.2,1.8-1.7c11.4-10,28.8-8.9,38.8,2.5c0.1,0.1,31.4,36.4,107.8,53.3
		c12.5,2.7,21.1,13.6,21.6,25.8c0,1.9-0.2,3.9-0.6,5.9c-1.3,5.7-4.2,10.6-8.2,14.2c2-2.8,3.4-6.1,4.2-9.7
		c3.3-14.8-6.1-29.5-20.9-32.8c-76.4-16.8-107.7-53.2-107.8-53.3C114.2,189.4,98.3,187.8,87,195.9z"/>
	<path class="st4" d="M85.4,233.1c-6.4-7.3-8.3-17-5.8-25.7c10.9-5.6,24.6-3.3,33.1,6.3c0.1,0.1,31.4,36.4,107.8,53.3
		c14.8,3.3,24.2,17.9,20.9,32.8c-0.1,0.5-0.3,1.1-0.4,1.6c-5.5,2.8-11.9,3.8-18.4,2.4C128.5,283,85.5,233.2,85.4,233.1z"/>
	<path class="st3" d="M233.1,311.1c18.4,0,33.3-15,33.3-33.3c0-18.4-15-33.3-33.3-33.3s-33.3,15-33.3,33.3
		C199.8,296.1,214.7,311.1,233.1,311.1z"/>
	<path class="st2" d="M253.9,251.6c7.7,6.1,12.6,15.5,12.6,26.1c0,7.8-2.7,14.9-7.1,20.6h-17.5c-12.8,0-23.3-10.5-23.3-23.3l0,0
		c0-12.8,10.5-23.3,23.3-23.3H253.9z"/>
	<path class="st8" d="M247,251.6h98c12.8,0,23.3,10.5,23.3,23.3l0,0c0,12.8-10.5,23.3-23.3,23.3h-98c-12.8,0-23.3-10.5-23.3-23.3
		l0,0C223.6,262.1,234.1,251.6,247,251.6z"/>
	<path class="st6" d="M247,251.6h98c5.5,0,10.5,1.9,14.5,5.1c-3.1,9.2-11.9,15.8-22.1,15.8h-98c-5.5,0-10.5-1.9-14.5-5.1
		C228.1,258.3,236.8,251.6,247,251.6z"/>
	<path class="st9" d="M153.1,106c-0.6,3.1-3.3,5.5-6.6,5.5c-3.3,0-6-2.4-6.6-5.5H153.1z"/>
	<path class="st5" d="M186.6,106c-0.5,3.1-2.7,5.5-5.4,5.5c-2.7,0-5-2.4-5.4-5.5H186.6z"/>
	<path class="st9" d="M137.1,100h17c1.8,0,3.3,1.5,3.3,3.3v0c0,1.8-1.5,3.3-3.3,3.3h-17c-1.8,0-3.3-1.5-3.3-3.3v0
		C133.8,101.5,135.3,100,137.1,100z"/>
	<path class="st6" d="M361.1,237.9c23.4,0,42.4,19,42.4,42.4c0,3.4-2.8,6.2-6.2,6.2l-72.4,0c-3.4,0-6.2-2.8-6.2-6.2
		C318.7,256.9,337.7,237.9,361.1,237.9z"/>
	<path class="st8" d="M342.3,286.5h-17.9c-3.4,0-6.2-2.8-6.2-6.2c0-5.2,0.9-10.2,2.6-14.8C320.7,265.8,320.1,286.5,342.3,286.5z"/>
	<path class="st5" d="M177.6,100h11.1c1.8,0,3.3,1.5,3.3,3.3v0c0,1.8-1.5,3.3-3.3,3.3h-11.1c-1.8,0-3.3-1.5-3.3-3.3v0
		C174.3,101.5,175.8,100,177.6,100z"/>
	<path class="st8" d="M163.2,138.3h6.2c1.4,0,2.5,1.1,2.5,2.5v0c0,1.4-1.1,2.5-2.5,2.5h-6.2c-1.4,0-2.5-1.1-2.5-2.5v0
		C160.7,139.5,161.8,138.3,163.2,138.3z"/>
	<path class="st8" d="M154.3,163.5h11c-5.9,1.1-10.4,6-11,12.1h-0.1V163.5z"/>
	<path class="st13" d="M108.5,265.2H144c4,0,7.2,3.2,7.2,7.2l0,0c0,4-3.2,7.2-7.2,7.2h-35.5c-4,0-7.2-3.2-7.2-7.2l0,0
		C101.3,268.4,104.5,265.2,108.5,265.2z"/>
	<path class="st14" d="M125.8,240c12.3,0,23,8.6,25.6,20.6c0.4,1.7,0,3.2-1.1,4.6c-1.1,1.3-2.5,2-4.2,2h-40.6c-1.7,0-3.2-0.7-4.2-2
		c-1.1-1.3-1.4-2.9-1.1-4.6C102.8,248.6,113.5,240,125.8,240z"/>
	<path class="st15" d="M128.6,267.2L128.6,267.2h-23.1h-0.1c-1.7,0-3.1-0.7-4.2-2c-1.1-1.3-1.4-2.9-1.1-4.6c2-9,8.5-16.1,16.8-19.1
		c8.3,3,14.8,10,16.8,19.1c0.4,1.7,0,3.2-1.1,4.6C131.7,266.5,130.3,267.2,128.6,267.2z"/>
	<path class="st14" d="M140.8,300.1c5.3-3.7,9.2-9.2,10.6-15.9c0.4-1.7,0-3.2-1.1-4.6c-1.1-1.3-2.5-2-4.2-2h-40.6
		c-1.7,0-3.2,0.7-4.2,2c-1.1,1.3-1.4,2.9-1.1,4.6c1.5,6.6,5.4,12.2,10.6,15.9H140.8z"/>
	<circle class="st14" cx="113.1" cy="250.3" r="2.1"/>
	<circle class="st14" cx="113.1" cy="258.4" r="2.1"/>
	<circle class="st14" cx="120.7" cy="254.5" r="2.1"/>
	<circle class="st16" cx="102.3" cy="277.4" r="12.2"/>
	<circle class="st16" cx="115.9" cy="283.9" r="7.6"/>
	<circle class="st17" cx="93.2" cy="284.8" r="7.6"/>
	<path class="st18" d="M83.7,285.7h88.5c4,0,7.2,3.2,7.2,7.2l0,0c0,3.9-3.2,7.2-7.2,7.2H83.7c-3.9,0-7.2-3.2-7.2-7.2l0,0
		C76.5,289,79.7,285.7,83.7,285.7z"/>
	<path class="st19" d="M83.7,285.7h40.8c4,0,7.2,3.2,7.2,7.2l0,0c0,3.9-3.2,7.2-7.2,7.2H83.7c-3.9,0-7.2-3.2-7.2-7.2l0,0
		C76.5,289,79.7,285.7,83.7,285.7z"/>
	<path class="st8" d="M148.2,171.7l6.1,3.9l1.7-10.5l9.3-1.6l0-4.2c0,0-6.2,0-6.4,0.2c-0.2,0.2-10.1,5.9-10.1,5.9L148.2,171.7z"/>
	<path class="st20" d="M369.1,286.5L369.1,286.5l24.2,0c1.3,0,2.4,1.1,2.4,2.4c0,7.1-6.5,11.8-13.1,12.3c0.4,0,0.8,0,1.2,0h169.5
		c8.1,0,14.7-6.6,14.7-14.7H369.1z"/>
	<path class="st21" d="M395.1,292.4c-1.4,4.1-5.1,7-9.4,8.2v0.6h167.6c6,0,11.2-3.6,13.5-8.8H395.1z"/>
	<path class="st22" d="M361.1,237.7c-4.2,0-8.2,0.6-12,1.7c17.6,5.2,30.4,21.4,30.4,40.7c0,3.4-2.8,6.2-6.2,6.2h24
		c3.4,0,6.2-2.8,6.2-6.2C403.5,256.7,384.5,237.7,361.1,237.7z"/>
	<path class="st19" d="M408.7,301.2h7.1c8.1,0,14.7-6.6,14.7-14.7h-7.1C423.4,294.6,416.8,301.2,408.7,301.2z"/>
	<path class="st19" d="M530.3,301.2h7.1c8.1,0,14.7-6.6,14.7-14.7h-7.1C545.1,294.6,538.4,301.2,530.3,301.2z"/>
	<path class="st1" d="M233,244.4c0.9,0,1.7,0,2.6,0.1c-17.2,1.3-30.8,15.7-30.8,33.2c0,7.8,2.7,14.9,7.1,20.6h-5.2
		c-4.4-5.7-7.1-12.8-7.1-20.6C199.6,259.3,214.6,244.4,233,244.4z"/>
	<path class="st23" d="M279.9,286.5h121.6c1.3,0,2.4,1.1,2.4,2.4c0,7.5-7.3,12.3-14.3,12.3h-97.8c-7,0-14.3-4.8-14.3-12.3
		C277.5,287.6,278.6,286.5,279.9,286.5z"/>
	<circle class="st19" cx="339.8" cy="292.4" r="3.3"/>
	<path class="st19" d="M312.8,290.3h7.7c1.1,0,2,0.9,2,2v0c0,1.1-0.9,2-2,2h-7.7c-1.1,0-2-0.9-2-2v0
		C310.9,291.2,311.7,290.3,312.8,290.3z"/>
	<path class="st19" d="M298,290.3h7.7c1.1,0,2,0.9,2,2v0c0,1.1-0.9,2-2,2H298c-1.1,0-2-0.9-2-2v0C296.1,291.2,297,290.3,298,290.3z"
		/>
	<path class="st14" d="M13.1,298.3h597.9c7.2,0,13,5.9,13,13l0,0c0,7.2-5.9,13-13,13H13.1c-7.2,0-13-5.9-13-13l0,0
		C0,304.1,5.9,298.3,13.1,298.3z"/>
	<path class="st1" d="M13.1,298.3h214c7.2,0,13,5.9,13,13l0,0c0,7.2-5.9,13-13,13h-214c-7.2,0-13-5.9-13-13l0,0
		C0,304.1,5.9,298.3,13.1,298.3z"/>
	<g>
		<g>
			<path class="st8" d="M106.4,136.6c0-2.3,3.4-2.3,3.4,0l-0.1,44.3c-2.4,10.3-10.3,3.5-20.8,17.9c-10.9,14.9-3.3,30.6-3.3,32
				l0,51.9c-0.1,1.5-0.7,13.8,12.1,13.8l142.4,0.2c10.3-0.1,19.8-0.2,20,15.8c0.2,20.5,4.8,31.8,34.3,30.8l50.5-0.9
				c16.2,1.1,20.2-14,20.1-30.8c-0.1-9.4-0.1-16.8,9.1-20.9c2.1-0.9,3.5,2.2,1.4,3.1c-11.6,5.2-4.3,19.1-8.8,35.6
				c-4.7,17.4-20.7,16.5-22,16.4c-2.5,0-15.4-0.3-50.2,0.9c-31.7,1.1-37.7-11.9-37.9-34.2c-0.1-13.8-9.7-12.4-19.3-12.4L97.7,300
				c-16.4,0-15.6-15.8-15.5-17.6v-51.4c-0.8-2.2-1.3-4.3-1.7-6.4c-4.2-20.8,10.3-37.3,21.3-39.8c3.6-0.7,4.5-3.9,4.7-4.7V136.6z"/>
			<g>
				<path class="st20" d="M104.3,127.3h7.9v9.4c0,2.2-1.8,3.9-3.9,3.9h0c-2.2,0-3.9-1.8-3.9-3.9V127.3z"/>
				<path class="st10" d="M104.3,127.3h5.1v9.4c0,1.7-1.1,3.1-2.6,3.7c-1.5-0.6-2.6-2-2.6-3.7V127.3z"/>
				<path class="st10" d="M104.9,131.2c13.5,0,24.5-12.3,24.5-27.4c0-15.1-11-27.4-24.5-27.4c-13.5,0-24.5,12.3-24.5,27.4
					C80.4,118.9,91.4,131.2,104.9,131.2z"/>
				<path class="st24" d="M100.1,119.3c7.3,0,13.2-7,13.2-15.6c0-8.6-5.9-15.6-13.2-15.6c-7.3,0-13.2,7-13.2,15.6
					C86.8,112.3,92.8,119.3,100.1,119.3z"/>
				<path class="st25" d="M100.1,88.2c1.2,0,2.3,0.2,3.4,0.5c-5.7,1.8-9.9,7.8-9.9,15c0,7.2,4.2,13.3,9.9,15
					c-1.1,0.3-2.2,0.5-3.4,0.5c-7.3,0-13.2-7-13.2-15.6C86.9,95.1,92.8,88.2,100.1,88.2z"/>
				<path class="st10" d="M106.7,141.8h3.1c0.8,0,1.4,0.6,1.4,1.4l0,0c0,0.8-0.6,1.4-1.4,1.4h-3.1c-0.8,0-1.4-0.6-1.4-1.4l0,0
					C105.2,142.4,105.9,141.8,106.7,141.8L106.7,141.8z M106.7,146.4h3.1c0.8,0,1.4,0.6,1.4,1.4l0,0c0,0.8-0.6,1.4-1.4,1.4h-3.1
					c-0.8,0-1.4-0.6-1.4-1.4l0,0C105.2,147.1,105.9,146.4,106.7,146.4z"/>
			</g>
		</g>
		<circle class="st8" cx="375.2" cy="292.4" r="3.3"/>
	</g>
	<path class="st3" d="M376.3,297.8h234.2c7.4,0,13.5,6.1,13.5,13.5l0,0c0,7.4-6.1,13.5-13.5,13.5H376.3c7.4,0,13.5-6.1,13.5-13.5
		l0,0C389.8,303.9,383.7,297.8,376.3,297.8z"/>
	<path class="st1" d="M55.9,198h31.4c2.3,0,4.2,1.9,4.2,4.2v4.2H51.6v-4.2C51.6,199.9,53.5,198,55.9,198z"/>
	<path class="st8" d="M47.6,205.4h22.9h22.9l-4.2,89.8c-0.1,1.7-1.6,3.1-3.6,3.1h-15h-15c-2,0-3.6-1.4-3.6-3.1L47.6,205.4z"/>
	<path class="st14" d="M47.6,205.4h8.6h14.2h8.6l-4.2,89.8c-0.1,1.7-1.6,3.1-3.6,3.1h-0.8H56.2h-0.8c-2,0-3.6-1.4-3.6-3.1
		L47.6,205.4z"/>
	<path class="st1" d="M51.6,289.9l-3.3-71.1c0.5,0,1.1-0.1,1.6-0.1h0c10.6,0,19.2,8.6,19.2,19.2v32.8
		C69.1,280.7,61.3,289,51.6,289.9z"/>
	<path class="st14" d="M48.9,202.7h43.5c2.9,0,5.2,2.4,5.2,5.3l0,0c0,2.9-2.4,5.2-5.2,5.2H48.9c-2.9,0-5.2-2.4-5.2-5.2l0,0
		C43.6,205,46,202.7,48.9,202.7z"/>
	<path class="st8" d="M78.4,202.7h14c2.9,0,5.2,2.4,5.2,5.3l0,0c0,2.9-2.4,5.2-5.2,5.2h-14c2.9,0,5.2-2.4,5.2-5.2l0,0
		C83.6,205,81.3,202.7,78.4,202.7z"/>
	<ellipse transform="matrix(0.8857 -0.4643 0.4643 0.8857 -15.0378 44.1232)" class="st11" cx="82.1" cy="52.6" rx="11" ry="6.4"/>
	<path class="st1" d="M95.8,57.6L95.8,57.6c1.4,0,2.5,1.1,2.5,2.5v12.8c0,1.4-1.1,2.5-2.5,2.5l0,0c-1.4,0-2.5-1.1-2.5-2.5V60.1
		C93.3,58.7,94.5,57.6,95.8,57.6z"/>
	<path class="st1" d="M95.8,48.9L95.8,48.9c1.4,0,2.5,1.1,2.5,2.5v0.8c0,1.4-1.1,2.5-2.5,2.5l0,0c-1.4,0-2.5-1.1-2.5-2.5v-0.8
		C93.3,50.1,94.5,48.9,95.8,48.9z"/>
	<path class="st26" d="M579.1,143.8H421.4c-8.3,0-16.4,6.8-17.9,15.1l-19.4,107c-1.5,8.3,4.1,15.1,12.4,15.1h155.4
		c8.3,0,16.4-6.8,17.9-15.1l19.4-107c0.5-3,0.2-5.8-0.9-8.1c1.2-1.2,3-1.5,3-1.5C589.3,148.3,585.4,143.8,579.1,143.8z"/>
	<path class="st23" d="M584.5,149.3H426.7c-8.3,0-16.4,6.8-17.9,15.1l-19.4,107c-1.5,8.3,4.1,15.1,12.4,15.1h155.4
		c8.3,0,16.4-6.8,17.9-15.1l19.4-107c0.5-3,0.2-5.8-0.9-8.1c1.2-1.2,3-1.5,3-1.5C594.6,153.7,590.8,149.3,584.5,149.3z"/>
	<path class="st20" d="M590.1,153.1H433.9c-8.1,0-15.9,6.6-17.5,14.7l-19.4,104c-1.5,8.1,3.9,14.7,12,14.7h156.2
		c8.1,0,15.9-6.6,17.5-14.7l19.4-104C603.6,159.7,598.2,153.1,590.1,153.1z"/>
	<path class="st18" d="M542.6,153.1H433.9c-8.1,0-15.9,6.6-17.5,14.7l-19.4,104c-1.5,8.1,3.9,14.7,12,14.7h14.9
		c33.4-25.1,66-57.2,92.1-92.1C526.7,180,535.6,166.2,542.6,153.1z"/>
	<path class="st19" d="M518.9,209.3l4.8,17.8c0.3,1-0.1,2.2-1,3.2c-0.9,1-2.1,1.6-3.3,1.6h-20.6c-1.2,0-2-0.6-2.3-1.6
		c-0.3-1,0.1-2.2,1-3.2l15.8-17.8c0.9-1,2.1-1.6,3.3-1.6C517.8,207.7,518.6,208.2,518.9,209.3z"/>
	<path class="st26" d="M451.6,183h-3.3c-4.1,0-7.5,3.4-7.5,7.5v0c0,4.1,3.4,7.5,7.5,7.5h3.3c4.1,0,7.5-3.4,7.5-7.5v0
		C459.1,186.4,455.7,183,451.6,183z"/>
	<path class="st26" d="M466.8,178.5h-1.6c-2.1,0-3.8,1.7-3.8,3.8v0c0,2.1,1.7,3.8,3.8,3.8h1.6c2.1,0,3.8-1.7,3.8-3.8v0
		C470.6,180.2,468.9,178.5,466.8,178.5z"/>
	<path class="st10" d="M515.4,215.5l2.8,10.5c0.2,0.6,0,1.3-0.6,1.9c-0.5,0.6-1.2,0.9-1.9,0.9h-12.1c-0.7,0-1.2-0.3-1.3-0.9
		c-0.2-0.6,0-1.3,0.6-1.9l9.3-10.5c0.5-0.6,1.2-0.9,1.9-0.9C514.8,214.5,515.3,214.9,515.4,215.5z"/>
</g>
</svg>
