<?xml version="1.0" encoding="iso-8859-1"?>
<!-- Generator: Adobe Illustrator 19.0.0, SVG Export Plug-In . SVG Version: 6.00 Build 0)  -->
<svg version="1.1" id="Layer_1" xmlns="http://www.w3.org/2000/svg" xmlns:xlink="http://www.w3.org/1999/xlink" x="0px" y="0px"
	 viewBox="0 0 512 512" style="enable-background:new 0 0 512 512;" xml:space="preserve">
<path style="fill:#E6EAEA;" d="M8.017,40.084h47.031v42.756H8.017v342.046h47.031v42.756H8.017v29.929h495.967v-29.929h-47.031
	v-42.756h47.031V82.839h-47.031V40.084h47.031V14.43H8.017V40.084z M414.196,424.885v42.756h-47.031v-42.756H414.196z
	 M324.409,424.885v42.756h-47.031v-42.756H324.409z M234.622,424.885v42.756h-47.031v-42.756H234.622z M144.835,424.885v42.756
	H97.804v-42.756H144.835z M414.196,40.084v42.756h-47.031V40.084H414.196z M324.409,40.084v42.756h-47.031V40.084H324.409z
	 M234.622,40.084v42.756h-47.031V40.084H234.622z M144.835,40.084v42.756H97.804V40.084H144.835z"/>
<rect x="8.017" y="117.044" style="fill:#4ACFD9;" width="495.967" height="277.912"/>
<path style="fill:#9BAAAB;" d="M8.017,14.43v25.653h47.031v42.756H8.017v342.046h47.031v42.756H8.017v29.929h246.778V14.43H8.017z
	 M144.835,467.641H97.804v-42.756h47.031V467.641z M144.835,82.839H97.804V40.084h47.031V82.839z M234.622,467.641h-47.031v-42.756
	h47.031V467.641z M187.591,82.839V40.084h47.031v42.756H187.591z"/>
<rect x="8.017" y="117.044" style="fill:#0295AA;" width="246.775" height="277.912"/>
<circle style="fill:#FFD1A9;" cx="256" cy="256" r="106.889"/>
<path style="fill:#FF8C29;" d="M149.111,256c0,58.63,47.207,106.227,105.684,106.874V149.126
	C196.317,149.773,149.111,197.37,149.111,256z"/>
<path style="fill:#FFFFFF;" d="M328.581,238.365c-3.303,0-6.395-2.057-7.558-5.347c-5.915-16.738-18.449-30.879-34.384-38.799
	c-3.965-1.97-5.582-6.782-3.611-10.747c1.969-3.965,6.781-5.585,10.747-3.612c19.632,9.757,35.074,27.184,42.366,47.814
	c1.476,4.174-0.713,8.754-4.887,10.23C330.369,238.217,329.467,238.365,328.581,238.365z"/>
<polygon style="fill:#F0353D;" points="229.435,307.307 294.48,255.088 229.435,204.693 "/>
<path d="M144.835,416.868H97.804c-4.428,0-8.017,3.589-8.017,8.017v42.756c0,4.427,3.588,8.017,8.017,8.017h47.031
	c4.428,0,8.017-3.589,8.017-8.017v-42.756C152.852,420.458,149.264,416.868,144.835,416.868z M136.818,459.624H105.82v-26.722
	h30.998V459.624z"/>
<path d="M234.622,416.868h-47.031c-4.428,0-8.017,3.589-8.017,8.017v42.756c0,4.427,3.588,8.017,8.017,8.017h47.031
	c4.428,0,8.017-3.589,8.017-8.017v-42.756C242.639,420.458,239.051,416.868,234.622,416.868z M226.605,459.624h-30.998v-26.722
	h30.998V459.624z"/>
<path d="M414.196,32.067h-47.031c-4.428,0-8.017,3.589-8.017,8.017v42.756c0,4.427,3.588,8.017,8.017,8.017h47.031
	c4.428,0,8.017-3.589,8.017-8.017V40.084C422.213,35.656,418.625,32.067,414.196,32.067z M406.18,74.823h-30.998V48.1h30.998V74.823
	z"/>
<path d="M324.409,416.868h-47.031c-4.428,0-8.017,3.589-8.017,8.017v42.756c0,4.427,3.588,8.017,8.017,8.017h47.031
	c4.428,0,8.017-3.589,8.017-8.017v-42.756C332.426,420.458,328.838,416.868,324.409,416.868z M316.392,459.624h-30.998v-26.722
	h30.998V459.624z"/>
<path d="M144.835,32.067H97.804c-4.428,0-8.017,3.589-8.017,8.017v42.756c0,4.427,3.588,8.017,8.017,8.017h47.031
	c4.428,0,8.017-3.589,8.017-8.017V40.084C152.852,35.656,149.264,32.067,144.835,32.067z M136.818,74.823H105.82V48.1h30.998V74.823
	z"/>
<path d="M324.409,32.067h-47.031c-4.428,0-8.017,3.589-8.017,8.017v42.756c0,4.427,3.588,8.017,8.017,8.017h47.031
	c4.428,0,8.017-3.589,8.017-8.017V40.084C332.426,35.656,328.838,32.067,324.409,32.067z M316.392,74.823h-30.998V48.1h30.998
	V74.823z"/>
<path d="M234.622,32.067h-47.031c-4.428,0-8.017,3.589-8.017,8.017v42.756c0,4.427,3.588,8.017,8.017,8.017h47.031
	c4.428,0,8.017-3.589,8.017-8.017V40.084C242.639,35.656,239.051,32.067,234.622,32.067z M226.605,74.823h-30.998V48.1h30.998
	V74.823z"/>
<path d="M503.983,48.1c4.428,0,8.017-3.589,8.017-8.017V14.43c0-4.427-3.588-8.017-8.017-8.017H8.017C3.588,6.413,0,10.003,0,14.43
	v25.653C0,44.511,3.588,48.1,8.017,48.1h39.015v26.722H8.017C3.588,74.823,0,78.412,0,82.839v34.205v277.912v29.929
	c0,4.427,3.588,8.017,8.017,8.017h39.015v26.722H8.017c-4.428,0-8.017,3.589-8.017,8.017v29.929c0,4.427,3.588,8.017,8.017,8.017
	h495.967c4.428,0,8.017-3.589,8.017-8.017v-29.929c0-4.427-3.588-8.017-8.017-8.017h-39.015v-26.722h39.015
	c4.428,0,8.017-3.589,8.017-8.017v-29.929V117.044V82.839c0-4.427-3.588-8.017-8.017-8.017h-39.015V48.1H503.983z M495.967,386.939
	H16.033V125.061h479.933V386.939z M456.952,416.868c-4.428,0-8.017,3.589-8.017,8.017v42.756c0,4.427,3.588,8.017,8.017,8.017
	h39.015v13.896H16.033v-13.896h39.015c4.428,0,8.017-3.589,8.017-8.017v-42.756c0-4.427-3.588-8.017-8.017-8.017H16.033v-13.896
	h479.933v13.896H456.952z M456.952,90.856h39.015v18.171H16.033V90.856h39.015c4.428,0,8.017-3.589,8.017-8.017V40.084
	c0-4.427-3.588-8.017-8.017-8.017H16.033v-9.62h479.933v9.62h-39.015c-4.428,0-8.017,3.589-8.017,8.017v42.756
	C448.935,87.267,452.524,90.856,456.952,90.856z"/>
<path d="M414.196,416.868h-47.031c-4.428,0-8.017,3.589-8.017,8.017v42.756c0,4.427,3.588,8.017,8.017,8.017h47.031
	c4.428,0,8.017-3.589,8.017-8.017v-42.756C422.213,420.458,418.625,416.868,414.196,416.868z M406.18,459.624h-30.998v-26.722
	h30.998V459.624z"/>
<path d="M256,370.906c63.359,0,114.906-51.546,114.906-114.906S319.359,141.094,256,141.094S141.094,192.64,141.094,256
	S192.641,370.906,256,370.906z M256,157.127c54.519,0,98.873,44.354,98.873,98.873S310.519,354.873,256,354.873
	S157.127,310.519,157.127,256S201.481,157.127,256,157.127z"/>
<path d="M225.968,314.536c1.103,0.529,2.287,0.788,3.465,0.788c1.791,0,3.569-0.6,5.02-1.765l65.045-52.219
	c1.914-1.537,3.019-3.866,2.998-6.321c-0.022-2.454-1.166-4.764-3.106-6.268l-65.045-50.395c-2.42-1.874-5.692-2.206-8.439-0.862
	c-2.746,1.347-4.487,4.14-4.487,7.198v102.614C221.419,310.391,223.188,313.202,225.968,314.536z M237.453,221.045l44.083,34.155
	l-44.083,35.39L237.453,221.045L237.453,221.045z"/>
<g>
</g>
<g>
</g>
<g>
</g>
<g>
</g>
<g>
</g>
<g>
</g>
<g>
</g>
<g>
</g>
<g>
</g>
<g>
</g>
<g>
</g>
<g>
</g>
<g>
</g>
<g>
</g>
<g>
</g>
</svg>
