<?xml version="1.0" encoding="utf-8"?>
<!-- Generator: Adobe Illustrator 21.0.2, SVG Export Plug-In . SVG Version: 6.00 Build 0)  -->
<svg version="1.1" id="Camada_1" xmlns="http://www.w3.org/2000/svg" xmlns:xlink="http://www.w3.org/1999/xlink" x="0px" y="0px"
	 viewBox="0 0 300 300" style="enable-background:new 0 0 300 300;" xml:space="preserve">
<style type="text/css">
	.st0{fill:#0070AE;}
	.st1{fill:#032E8C;}
	.st2{fill:#BED8ED;}
	.st3{fill:#FFCE63;}
	.st4{fill:#FFE269;}
	.st5{fill:#FFB839;}
	.st6{fill:#F29D20;}
	.st7{fill:#FFC255;}
	.st8{fill:#FFD550;}
	.st9{fill:#E59310;}
	.st10{fill:#FFFFA4;}
	.st11{fill:#FFFFFF;}
	.st12{fill:#FF9F38;}
	.st13{fill:#2BB4F6;}
	.st14{fill:#FF5252;}
	.st15{fill:#FFE97B;}
	.st16{fill:#75DC5E;}
</style>
<g id="fundo">
	<circle class="st0" cx="149.6" cy="152.6" r="113.2"/>
	<path class="st1" d="M149.6,39.3c62.5,0,113.2,50.7,113.2,113.2s-50.7,113.2-113.2,113.2c-62.5,0-113.2-50.7-113.2-113.2
		S87.1,39.3,149.6,39.3 M149.6,30.3c-32.6,0-63.3,12.7-86.4,35.8c-23.1,23.1-35.8,53.8-35.8,86.4s12.7,63.3,35.8,86.4
		c23.1,23.1,53.8,35.8,86.4,35.8c32.6,0,63.3-12.7,86.4-35.8c23.1-23.1,35.8-53.8,35.8-86.4c0-32.6-12.7-63.3-35.8-86.4
		C212.9,43.1,182.2,30.3,149.6,30.3L149.6,30.3z"/>
</g>
<g id="trofeu">
	<g id="sombra-trofeu">
		<path class="st1" d="M82.3,93.5c3.6,6.3,6.8,11.5,9.3,15.7c9.5,15.7,11.4,19.2,7.6,25.8c-1.6,2.7-4.8,4-7.6,3.2
			c-0.7-0.2-1.3-0.8-1.8-1.7c-0.8-1.6-0.9-3.9-0.1-5.9c0.2-0.6,0.6-1.3,1.3-1.4c0.5,0,1,0.3,1.3,0.7c0.1,0.2,0.2,0.5,0.1,0.7
			c-0.1,1,0.4,2,1.2,2.6c1.8,1.3,4.5,0.2,4.7-2c0.2-1.5-0.1-2.9-0.9-4.2c-1.4-2.5-4.1-4-7-3.8c-2.9,0.2-5.3,2.2-6.4,5.2
			c-1.4,3.6-1.3,7.5,0.3,10.7c1.2,2.4,3.2,4.1,5.5,4.8c1.1,0.3,2.3,0.5,3.4,0.5c4.4,0,8.6-2.4,11-6.4c1.7-2.9,2.6-5.5,2.7-8.1
			c3.9,19.4,21.1,34.1,41.7,34.1h-8.5c-2.2,0-4,1.8-4,4c0,2.2,1.8,4,4,4h5.5l-6.4,49.7c-2.8,0-5.1,2.3-5.1,5.1
			c0,2.8,2.3,5.1,5.1,5.1h-15.7c-3,0-5.4,2.4-5.4,5.4c0,3,2.4,5.4,5.4,5.4h70.2c3,0,5.4-2.4,5.4-5.4c0-3-2.4-5.4-5.4-5.4h-13.7
			c2.8,0,5.1-2.3,5.1-5.1c0-2.8-2.3-5.1-5.1-5.1l-8.4-49.7h5.5c2.2,0,4-1.8,4-4c0-2.2-1.8-4-4-4h-8.5c21.2,0,38.7-15.5,42-35.7
			c-0.2,3.2,0.6,6.3,2.7,9.8c2.4,4,6.6,6.4,11,6.4c1.1,0,2.3-0.2,3.4-0.5c2.3-0.7,4.3-2.4,5.5-4.8c1.6-3.2,1.7-7.1,0.3-10.7
			c-1.2-3.1-3.6-5-6.4-5.2c-2.8-0.2-5.6,1.3-7,3.8c-0.7,1.3-1,2.8-0.9,4.2c0.2,2.2,2.9,3.3,4.7,2c0.8-0.6,1.3-1.6,1.2-2.6
			c0-0.2,0-0.5,0.1-0.7c0.2-0.4,0.8-0.7,1.3-0.7c0.6,0,1,0.8,1.3,1.4c0.8,2,0.7,4.2-0.1,5.9c-0.5,0.9-1.1,1.5-1.8,1.7
			c-2.8,0.8-6-0.5-7.6-3.2c-3.9-6.5-2-10.1,7.6-25.8c2.6-4.2,5.8-9.5,9.3-15.7c3-5.2,5.2-10.1,6.7-14.7c-1.5-1.9-3.1-3.7-4.7-5.5
			c-1.2,5.1-3.6,10.8-7.2,17.2c-3.5,6.2-6.6,11.2-9.3,15.6c-5.3,8.8-8.9,14.7-10,19.9c0.2-1.5,0.2-3,0.2-4.5v-70
			c-17.9-11-39-17.3-61.6-17.3c-20.9,0-40.5,5.4-57.6,14.9c5.6-2.3,11.6-3,14.2-3.1v75.4c0,1,0,1.9,0.1,2.8
			c-1.4-4.8-4.8-10.4-9.6-18.2c-2.7-4.4-5.7-9.4-9.3-15.6c-8.2-14.4-10.2-25.5-5.8-33c1-1.7,2.2-3.1,3.6-4.3
			c-4,2.6-7.7,5.4-11.4,8.4C72.3,70.2,75.1,80.9,82.3,93.5z"/>
		<path class="st2" d="M222.8,238.9h-30.9h-67.1H76.4c19.7,16.7,45.3,26.9,73.2,26.9S203.1,255.7,222.8,238.9z"/>
	</g>
	<g id="trofeuu">
		<g>
			<path class="st3" d="M83.9,144.4c-1.1,0-2.3-0.2-3.4-0.5c-2.3-0.7-4.3-2.4-5.5-4.8c-1.6-3.2-1.7-7.1-0.3-10.7
				c1.2-3.1,3.6-5,6.4-5.2c2.8-0.2,5.6,1.3,7,3.8c0.7,1.3,1,2.8,0.9,4.2c-0.2,2.2-2.9,3.3-4.7,2l0,0c-0.8-0.6-1.3-1.6-1.2-2.6
				c0-0.2,0-0.5-0.1-0.7c-0.2-0.4-0.8-0.7-1.3-0.7c-0.6,0-1,0.8-1.3,1.4c-0.8,2-0.7,4.2,0.1,5.9c0.5,0.9,1.1,1.5,1.8,1.7
				c2.8,0.8,6-0.5,7.6-3.2c3.9-6.5,2-10.1-7.6-25.8c-2.6-4.2-5.8-9.5-9.3-15.7c-9.3-16.4-11.3-29.5-5.8-39
				C75.4,40.2,97.2,40,98.2,40l0,6c-0.2,0-19.3,0.2-25.9,11.5c-4.4,7.5-2.4,18.6,5.8,33c3.5,6.2,6.6,11.2,9.3,15.6
				c9.5,15.6,13.4,22.1,7.6,31.9C92.6,142.1,88.4,144.4,83.9,144.4z"/>
		</g>
		<g>
			<path class="st3" d="M215,144.4c1.1,0,2.3-0.2,3.4-0.5c2.3-0.7,4.3-2.4,5.5-4.8c1.6-3.2,1.7-7.1,0.3-10.7c-1.2-3.1-3.6-5-6.4-5.2
				c-2.8-0.2-5.6,1.3-7,3.8c-0.7,1.3-1,2.8-0.9,4.2c0.2,2.2,2.9,3.3,4.7,2l0,0c0.8-0.6,1.3-1.6,1.2-2.6c0-0.2,0-0.5,0.1-0.7
				c0.2-0.4,0.8-0.7,1.3-0.7c0.6,0,1,0.8,1.3,1.4c0.8,2,0.7,4.2-0.1,5.9c-0.5,0.9-1.1,1.5-1.8,1.7c-2.8,0.8-6-0.5-7.6-3.2
				c-3.9-6.5-2-10.1,7.6-25.8c2.6-4.2,5.8-9.5,9.3-15.7c9.3-16.4,11.3-29.5,5.8-39c-8.3-14.3-30.1-14.5-31-14.5l0,6
				c0.2,0,19.3,0.2,25.9,11.5c4.4,7.5,2.4,18.6-5.8,33c-3.5,6.2-6.6,11.2-9.3,15.6c-9.5,15.6-13.4,22.1-7.6,31.9
				C206.4,142.1,210.6,144.4,215,144.4z"/>
		</g>
		<path class="st4" d="M159.3,164h-20c-23.5,0-42.5-19-42.5-42.5V34.2h105v87.3C201.8,145,182.8,164,159.3,164z"/>
		<g>
			<path class="st5" d="M182.5,34.2v73.9c0,23.5-19,42.5-42.5,42.5h-20c-4.7,0-9.2-0.8-13.5-2.2c7.8,9.5,19.6,15.5,32.8,15.5h20
				c23.5,0,42.5-19,42.5-42.5V34.2H182.5z"/>
		</g>
		<g>
			<path class="st6" d="M192.2,34.2v83.2c0,23.5-19,42.5-42.5,42.5h-20c-4,0-8-0.6-11.7-1.6c6.3,3.6,13.5,5.7,21.3,5.7h20
				c23.5,0,42.5-19,42.5-42.5V34.2H192.2z"/>
			<rect x="172.8" y="30.1" class="st7" width="19.4" height="4.1"/>
		</g>
		<path class="st5" d="M211.2,34.7H87.5c-2.5,0-4.6-2.1-4.6-4.6l0,0c0-2.5,2.1-4.6,4.6-4.6h123.8c2.5,0,4.6,2.1,4.6,4.6l0,0
			C215.8,32.6,213.8,34.7,211.2,34.7z"/>
		<polygon class="st8" points="170.7,221.7 130,221.7 136.3,172 162.3,172 		"/>
		<path class="st9" d="M167.8,172h-37c-2.2,0-4-1.8-4-4l0,0c0-2.2,1.8-4,4-4h37c2.2,0,4,1.8,4,4l0,0C171.8,170.2,170,172,167.8,172z
			"/>
		<path class="st5" d="M153.4,169.1h-20.8c-1.4,0-2.6-1.1-2.6-2.6l0,0c0-1.4,1.1-2.6,2.6-2.6h20.8c1.4,0,2.6,1.1,2.6,2.6l0,0
			C155.9,168,154.8,169.1,153.4,169.1z"/>
		<path class="st5" d="M160.9,169.1h-1.3c-1.4,0-2.6-1.1-2.6-2.6l0,0c0-1.4,1.1-2.6,2.6-2.6h1.3c1.4,0,2.6,1.1,2.6,2.6l0,0
			C163.4,168,162.3,169.1,160.9,169.1z"/>
		<path class="st9" d="M170.7,232H130c-2.8,0-5.1-2.3-5.1-5.1v0c0-2.8,2.3-5.1,5.1-5.1h40.7c2.8,0,5.1,2.3,5.1,5.1v0
			C175.8,229.7,173.5,232,170.7,232z"/>
		<path class="st5" d="M151,228.1h-19.3c-1.8,0-3.2-1.4-3.2-3.2l0,0c0-1.8,1.4-3.2,3.2-3.2H151c1.8,0,3.2,1.4,3.2,3.2l0,0
			C154.2,226.7,152.7,228.1,151,228.1z"/>
		<path class="st5" d="M160.2,228.1L160.2,228.1c-1.8,0-3.2-1.4-3.2-3.2l0,0c0-1.8,1.4-3.2,3.2-3.2l0,0c1.8,0,3.2,1.4,3.2,3.2l0,0
			C163.4,226.7,162,228.1,160.2,228.1z"/>
		<path class="st9" d="M184.4,242.8h-70.2c-3,0-5.4-2.4-5.4-5.4v0c0-3,2.4-5.4,5.4-5.4h70.2c3,0,5.4,2.4,5.4,5.4v0
			C189.8,240.4,187.4,242.8,184.4,242.8z"/>
		<path class="st5" d="M168.6,238.4H116c-1.8,0-3.2-1.4-3.2-3.2l0,0c0-1.8,1.4-3.2,3.2-3.2h52.6c1.8,0,3.2,1.4,3.2,3.2l0,0
			C171.8,237,170.4,238.4,168.6,238.4z"/>
		<path class="st5" d="M179,238.4L179,238.4c-1.8,0-3.2-1.4-3.2-3.2l0,0c0-1.8,1.4-3.2,3.2-3.2l0,0c1.8,0,3.2,1.4,3.2,3.2l0,0
			C182.2,237,180.8,238.4,179,238.4z"/>
		<path class="st6" d="M136.3,172c0,0,25.2,15.5,33.8,46.2l-7.8-46.2H136.3z"/>
		<path class="st4" d="M162.5,30.1H94.5c-1.3,0-2.3-1-2.3-2.3l0,0c0-1.3,1-2.3,2.3-2.3h68.1c1.3,0,2.3,1,2.3,2.3l0,0
			C164.8,29,163.8,30.1,162.5,30.1z"/>
		<path class="st4" d="M190.5,30.1H173c-1.3,0-2.3-1-2.3-2.3l0,0c0-1.3,1-2.3,2.3-2.3h17.5c1.3,0,2.3,1,2.3,2.3l0,0
			C192.8,29,191.8,30.1,190.5,30.1z"/>
		<path class="st10" d="M100,95L100,95c-1.7,0-3.2-1.4-3.2-3.2V45.5c0-1.7,1.4-3.2,3.2-3.2l0,0c1.7,0,3.2,1.4,3.2,3.2v46.3
			C103.2,93.6,101.7,95,100,95z"/>
		<path class="st10" d="M100,125.3L100,125.3c-1.7,0-3.2-1.4-3.2-3.2v-17c0-1.7,1.4-3.2,3.2-3.2l0,0c1.7,0,3.2,1.4,3.2,3.2v17
			C103.2,123.9,101.7,125.3,100,125.3z"/>
		<path class="st5" d="M96.8,34.2c0,0,84.2,1.1,84.9,23.1s5.6-23.1,5.6-23.1H96.8z"/>
		<path class="st11" d="M182,65.3h-1.6c-2.6,0-4.6-2.1-4.6-4.6v-1.5c0-1.4-1-2.7-2.4-2.8c-1.6-0.2-3,1.1-3,2.7v1.7
			c0,2.6-2.1,4.6-4.6,4.6h-1.6c-1.4,0-2.7,1-2.8,2.4c-0.2,1.6,1.1,3,2.7,3h1.7c2.6,0,4.6,2.1,4.6,4.6v1.5c0,1.4,1,2.7,2.4,2.8
			c1.6,0.2,3-1.1,3-2.7v-1.7c0-2.6,2.1-4.6,4.6-4.6h1.7c1.6,0,2.8-1.4,2.7-3C184.6,66.3,183.4,65.3,182,65.3z"/>
		<path class="st11" d="M160.6,86h-0.9c-1.5,0-2.8-1.3-2.8-2.8v-0.9c0-0.8-0.6-1.6-1.5-1.7c-1-0.1-1.8,0.7-1.8,1.6v1
			c0,1.5-1.3,2.8-2.8,2.8h-0.9c-0.8,0-1.6,0.6-1.7,1.5c-0.1,1,0.7,1.8,1.6,1.8h1c1.5,0,2.8,1.3,2.8,2.8v0.9c0,0.8,0.6,1.6,1.5,1.7
			c1,0.1,1.8-0.7,1.8-1.6v-1c0-1.5,1.3-2.8,2.8-2.8h1c0.9,0,1.7-0.8,1.6-1.8C162.2,86.6,161.5,86,160.6,86z"/>
	</g>
</g>
<g id="brilho">
	<g>
		<circle class="st1" cx="256.2" cy="135.6" r="6.6"/>
		<circle class="st12" cx="252.6" cy="131.9" r="6.6"/>
	</g>
	<g>
		<g>
			<path class="st1" d="M247.8,174.1L247.8,174.1L247.8,174.1c-4.1-0.1-11.1-7.8-11.3-11.2l-0.1,0.1c-0.3,3.4-6.9,10.7-11,11
				l-0.1,0.1l0,0c4.1,0.2,10.9,7.8,11.1,11.1l0.1,0.1C236.6,182.1,243.7,174.1,247.8,174.1z"/>
		</g>
		<g>
			<path class="st13" d="M244.2,170.5L244.2,170.5L244.2,170.5c-4.1-0.1-11.1-7.8-11.3-11.2l-0.1,0.1c-0.3,3.4-6.9,10.7-11,11
				l-0.1,0.1l0,0c4.1,0.2,10.9,7.8,11.1,11.1l0.1,0.1C232.9,178.4,240.1,170.5,244.2,170.5z"/>
		</g>
	</g>
	<g>
		<g>
			<path class="st1" d="M245.9,198.5c0.9,3.7,0.5,6.5-1.1,8.5c-2,2.5-5.5,2.8-7.3,2.7c-0.6,0-1.1-0.5-1-1.1l0.1-0.9l-0.1,1l0-0.1
				c0.1-0.5,0.5-0.9,1-0.9c1.4,0,4.2-0.2,5.7-2c1.3-1.6,1.4-4.1,0.4-7.6c-0.2-0.5,0.1-1.1,0.6-1.2l0,0c0.5-0.2,1.1,0.1,1.3,0.7
				C245.7,197.9,245.8,198.2,245.9,198.5z"/>
		</g>
		<g>
			<path class="st14" d="M242.2,194.9c0.9,3.7,0.5,6.5-1.1,8.5c-2,2.5-5.5,2.8-7.3,2.7c-0.6,0-1.1-0.5-1-1.1l0.1-0.9l-0.1,1l0-0.1
				c0.1-0.5,0.5-0.9,1-0.9c1.4,0,4.2-0.2,5.7-2c1.3-1.6,1.4-4.1,0.4-7.6c-0.2-0.5,0.1-1.1,0.6-1.2l0,0c0.5-0.2,1.1,0.1,1.3,0.7
				C242.1,194.3,242.2,194.6,242.2,194.9z"/>
		</g>
	</g>
	<g>
		<g>
			<path class="st1" d="M224,220.7L224,220.7L224,220.7c-2.9,0-7.8-5.5-7.9-7.9l-0.1,0.1c-0.2,2.4-4.9,7.5-7.7,7.7l-0.1,0.1l0,0
				c2.9,0.1,7.7,5.5,7.8,7.8l0.1,0.1C216.1,226.3,221.2,220.7,224,220.7z"/>
		</g>
		<g>
			<path class="st15" d="M220.4,217L220.4,217L220.4,217c-2.9,0-7.8-5.5-7.9-7.9l-0.1,0.1c-0.2,2.4-4.9,7.5-7.7,7.7l-0.1,0.1l0,0
				c2.9,0.1,7.7,5.5,7.8,7.8l0.1,0.1C212.5,222.6,217.5,217,220.4,217z"/>
		</g>
	</g>
	<g>
		<circle class="st1" cx="199.8" cy="192.3" r="4"/>
		<circle class="st15" cx="196.2" cy="188.7" r="4"/>
	</g>
	<g>
		<g>
			<path class="st1" d="M120.5,185.7c0.9,3.7,0.5,6.5-1.1,8.5c-2,2.5-5.5,2.8-7.3,2.7c-0.6,0-1.1-0.5-1-1.1l0.1-0.9l-0.1,1l0-0.1
				c0.1-0.5,0.5-0.9,1-0.9c1.4,0,4.2-0.2,5.7-2c1.3-1.6,1.4-4.1,0.4-7.6c-0.2-0.5,0.1-1.1,0.6-1.2l0,0c0.5-0.2,1.1,0.1,1.3,0.7
				C120.3,185.1,120.4,185.4,120.5,185.7z"/>
		</g>
		<g>
			<path class="st12" d="M116.8,182.1c0.9,3.7,0.5,6.5-1.1,8.5c-2,2.5-5.5,2.8-7.3,2.7c-0.6,0-1.1-0.5-1-1.1l0.1-0.9l-0.1,1l0-0.1
				c0.1-0.5,0.5-0.9,1-0.9c1.4,0,4.2-0.2,5.7-2c1.3-1.6,1.4-4.1,0.4-7.6c-0.2-0.5,0.1-1.1,0.6-1.2l0,0c0.5-0.2,1.1,0.1,1.3,0.7
				C116.7,181.4,116.7,181.7,116.8,182.1z"/>
		</g>
	</g>
	<g>
		<g>
			<path class="st1" d="M108.5,208.6L108.5,208.6L108.5,208.6c-2.4,0-6.6-4.6-6.7-6.6l0,0c-0.2,2-4.1,6.3-6.5,6.5l-0.1,0.1l0,0
				c2.4,0.1,6.5,4.6,6.6,6.6l0.1,0.1C101.8,213.3,106,208.6,108.5,208.6z"/>
		</g>
		<g>
			<path class="st13" d="M104.8,205L104.8,205L104.8,205c-2.4,0-6.6-4.6-6.7-6.6l0,0c-0.2,2-4.1,6.3-6.5,6.5l-0.1,0.1l0,0
				c2.4,0.1,6.5,4.6,6.6,6.6l0.1,0.1C98.2,209.7,102.4,205,104.8,205z"/>
		</g>
	</g>
	<g>
		<g>
			<path class="st1" d="M79.1,223.4c-5.6,0-9.6-1.5-11.9-4.6c-2.9-3.9-2-9-1.4-11.5c0.2-0.9,1.2-1.3,2-1l1.3,0.5l-1.4-0.6l0.1,0
				c0.7,0.3,1.1,1,0.9,1.8c-0.5,2-1.2,6.1,0.9,9c1.8,2.5,5.5,3.6,10.8,3.3c0.8,0,1.5,0.6,1.6,1.4l0,0c0.1,0.8-0.6,1.6-1.4,1.6
				C80,223.4,79.5,223.4,79.1,223.4z"/>
		</g>
		<g>
			<path class="st16" d="M75.4,219.8c-5.6,0-9.6-1.5-11.9-4.6c-2.9-3.9-2-9-1.4-11.5c0.2-0.9,1.2-1.3,2-1l1.3,0.5l-1.4-0.6l0.1,0
				c0.7,0.3,1.1,1,0.9,1.8c-0.5,2-1.2,6.1,0.9,9c1.8,2.5,5.5,3.6,10.8,3.3c0.8,0,1.5,0.6,1.6,1.4l0,0c0.1,0.8-0.6,1.6-1.4,1.6
				C76.4,219.8,75.9,219.8,75.4,219.8z"/>
		</g>
	</g>
	<g>
		<circle class="st1" cx="99.4" cy="171.9" r="4.2"/>
		<circle class="st16" cx="95.8" cy="168.2" r="4.2"/>
	</g>
	<g>
		<g>
			<path class="st1" d="M77.1,182.3L77.1,182.3L77.1,182.3c-4.1-0.1-11.1-7.8-11.3-11.2l-0.1,0.1c-0.3,3.4-6.9,10.7-11,11l-0.1,0.1
				l0,0c4.1,0.2,10.9,7.8,11.1,11.1l0.1,0.1C65.8,190.2,73,182.3,77.1,182.3z"/>
		</g>
		<g>
			<path class="st15" d="M73.4,178.6L73.4,178.6L73.4,178.6c-4.1-0.1-11.1-7.8-11.3-11.2l-0.1,0.1c-0.3,3.4-6.9,10.7-11,11l-0.1,0.1
				l0,0c4.1,0.2,10.9,7.8,11.1,11.1l0.1,0.1C62.2,186.6,69.3,178.6,73.4,178.6z"/>
		</g>
	</g>
	<g>
		<circle class="st1" cx="50.1" cy="140.5" r="4.5"/>
		<circle class="st14" cx="46.5" cy="136.8" r="4.5"/>
	</g>
	<g>
		<g>
			<path class="st1" d="M58.9,107.3c5.6,0,9.6,1.5,11.9,4.6c2.9,3.9,2,9,1.4,11.5c-0.2,0.9-1.2,1.3-2,1l-1.3-0.5l1.4,0.6l-0.1,0
				c-0.7-0.3-1.1-1-0.9-1.8c0.5-2,1.2-6.1-0.9-9c-1.8-2.5-5.5-3.6-10.8-3.3c-0.8,0-1.5-0.6-1.6-1.4l0,0c-0.1-0.8,0.6-1.6,1.4-1.6
				C58,107.3,58.5,107.3,58.9,107.3z"/>
		</g>
		<g>
			<path class="st15" d="M55.3,103.7c5.6,0,9.6,1.5,11.9,4.6c2.9,3.9,2,9,1.4,11.5c-0.2,0.9-1.2,1.3-2,1l-1.3-0.5l1.4,0.6l-0.1,0
				c-0.7-0.3-1.1-1-0.9-1.8c0.5-2,1.2-6.1-0.9-9c-1.8-2.5-5.5-3.6-10.8-3.3c-0.8,0-1.5-0.6-1.6-1.4l0,0c-0.1-0.8,0.6-1.6,1.4-1.6
				C54.3,103.7,54.8,103.7,55.3,103.7z"/>
		</g>
	</g>
</g>
</svg>
